<svg width="1200" height="600" viewBox="0 0 1200 600" xmlns="http://www.w3.org/2000/svg">
  <defs>
    <linearGradient id="sky" x1="0" y1="0" x2="0" y2="1">
      <stop offset="0%" stop-color="#0F1C2E"/>
      <stop offset="60%" stop-color="#1A3050"/>
      <stop offset="100%" stop-color="#243D5C"/>
    </linearGradient>
    <linearGradient id="water" x1="0" y1="0" x2="0" y2="1">
      <stop offset="0%" stop-color="#1A3050"/>
      <stop offset="100%" stop-color="#0F1C2E"/>
    </linearGradient>
    <linearGradient id="glow" x1="0" y1="0" x2="1" y2="0">
      <stop offset="0%" stop-color="transparent"/>
      <stop offset="40%" stop-color="rgba(232,96,28,0.18)"/>
      <stop offset="60%" stop-color="rgba(232,96,28,0.18)"/>
      <stop offset="100%" stop-color="transparent"/>
    </linearGradient>
  </defs>

  <!-- Sky -->
  <rect width="1200" height="600" fill="url(#sky)"/>

  <!-- Orange horizon glow -->
  <rect x="0" y="320" width="1200" height="120" fill="url(#glow)"/>

  <!-- Stars -->
  <circle cx="80" cy="40" r="1.2" fill="white" opacity="0.6"/>
  <circle cx="200" cy="25" r="1" fill="white" opacity="0.5"/>
  <circle cx="340" cy="60" r="1.5" fill="white" opacity="0.7"/>
  <circle cx="500" cy="30" r="1" fill="white" opacity="0.4"/>
  <circle cx="620" cy="55" r="1.2" fill="white" opacity="0.6"/>
  <circle cx="780" cy="20" r="1" fill="white" opacity="0.5"/>
  <circle cx="900" cy="45" r="1.5" fill="white" opacity="0.7"/>
  <circle cx="1050" cy="35" r="1" fill="white" opacity="0.4"/>
  <circle cx="1150" cy="60" r="1.2" fill="white" opacity="0.6"/>
  <circle cx="140" cy="90" r="1" fill="white" opacity="0.3"/>
  <circle cx="450" cy="80" r="1" fill="white" opacity="0.5"/>
  <circle cx="970" cy="75" r="1.2" fill="white" opacity="0.4"/>

  <!-- Fjell/Preikestolen i bakgrunn -->
  <polygon points="0,380 120,200 220,300 320,180 450,320 550,260 650,340 750,220 850,310 950,200 1050,300 1150,240 1200,280 1200,420 0,420" fill="#162638"/>
  <!-- Preikestolen-platå -->
  <polygon points="700,195 800,195 810,220 750,235 690,220" fill="#1D3550"/>
  <rect x="700" y="180" width="100" height="17" rx="2" fill="#1D3550"/>

  <!-- Stavanger domkirke silhuett -->
  <rect x="555" y="290" width="22" height="80" fill="#1B3048"/>
  <polygon points="555,290 566,260 577,290" fill="#1B3048"/>
  <rect x="545" y="330" width="42" height="40" fill="#1B3048"/>
  <rect x="580" y="300" width="12" height="50" fill="#1B3048"/>
  <polygon points="580,300 586,278 592,300" fill="#1B3048"/>

  <!-- Bakgrunn-bygg -->
  <rect x="480" y="320" width="35" height="60" fill="#1B2F44"/>
  <rect x="520" y="330" width="25" height="50" fill="#1B2F44"/>
  <rect x="600" y="310" width="40" height="70" fill="#1B2F44"/>
  <rect x="645" y="325" width="30" height="55" fill="#1B2F44"/>
  <rect x="680" y="315" width="45" height="65" fill="#1B2F44"/>

  <!-- Gamle Stavanger — hvite trehus venstre -->
  <rect x="30" y="350" width="45" height="55" rx="2" fill="#F5F0E8"/>
  <polygon points="30,350 52,325 75,350" fill="#E8E2D5"/>
  <rect x="47" y="370" width="12" height="18" rx="1" fill="#1A3050"/>
  <rect x="33" y="358" width="10" height="10" rx="1" fill="#1A3050"/>

  <rect x="82" y="345" width="40" height="60" rx="2" fill="#F0EBE0"/>
  <polygon points="82,345 102,318 122,345" fill="#E3DDD0"/>
  <rect x="98" y="368" width="11" height="17" rx="1" fill="#1A3050"/>

  <rect x="128" y="355" width="38" height="50" rx="2" fill="#F5F0E8"/>
  <polygon points="128,355 147,332 166,355" fill="#E8E2D5"/>
  <rect x="142" y="374" width="10" height="15" rx="1" fill="#1A3050"/>

  <rect x="170" y="348" width="42" height="57" rx="2" fill="#EEEADE"/>
  <polygon points="170,348 191,322 212,348" fill="#E1DCCE"/>
  <rect x="186" y="368" width="11" height="16" rx="1" fill="#1A3050"/>

  <rect x="216" y="352" width="36" height="53" rx="2" fill="#F5F0E8"/>
  <polygon points="216,352 234,328 252,352" fill="#E8E2D5"/>
  <rect x="230" y="370" width="10" height="16" rx="1" fill="#1A3050"/>

  <!-- Nyere bygg høyre side -->
  <rect x="820" y="310" width="55" height="90" rx="2" fill="#1E3558"/>
  <rect x="833" y="320" width="10" height="8" rx="1" fill="rgba(255,200,80,0.5)"/>
  <rect x="850" y="320" width="10" height="8" rx="1" fill="rgba(255,200,80,0.3)"/>
  <rect x="833" y="336" width="10" height="8" rx="1" fill="rgba(255,200,80,0.4)"/>
  <rect x="850" y="336" width="10" height="8" rx="1" fill="rgba(255,200,80,0.5)"/>
  <rect x="833" y="352" width="10" height="8" rx="1" fill="rgba(255,200,80,0.2)"/>
  <rect x="850" y="352" width="10" height="8" rx="1" fill="rgba(255,200,80,0.4)"/>

  <rect x="880" y="325" width="48" height="75" rx="2" fill="#1E3558"/>
  <rect x="893" y="335" width="9" height="7" rx="1" fill="rgba(255,200,80,0.4)"/>
  <rect x="908" y="335" width="9" height="7" rx="1" fill="rgba(255,200,80,0.5)"/>
  <rect x="893" y="350" width="9" height="7" rx="1" fill="rgba(255,200,80,0.3)"/>
  <rect x="908" y="350" width="9" height="7" rx="1" fill="rgba(255,200,80,0.4)"/>

  <rect x="935" y="318" width="60" height="82" rx="2" fill="#1B3250"/>
  <rect x="950" y="328" width="10" height="8" rx="1" fill="rgba(255,200,80,0.5)"/>
  <rect x="967" y="328" width="10" height="8" rx="1" fill="rgba(255,200,80,0.3)"/>
  <rect x="984" y="328" width="10" height="8" rx="1" fill="rgba(255,200,80,0.4)"/>
  <rect x="950" y="344" width="10" height="8" rx="1" fill="rgba(255,200,80,0.2)"/>
  <rect x="967" y="344" width="10" height="8" rx="1" fill="rgba(255,200,80,0.5)"/>

  <rect x="1000" y="330" width="45" height="70" rx="2" fill="#1E3558"/>
  <rect x="1060" y="335" width="50" height="65" rx="2" fill="#1B3250"/>
  <rect x="1115" y="345" width="85" height="55" rx="2" fill="#1E3558"/>

  <!-- Kaien -->
  <rect x="0" y="395" width="1200" height="18" rx="0" fill="#15273A"/>
  <rect x="260" y="388" width="620" height="10" rx="2" fill="#1A3050"/>

  <!-- Orange accent stripe -->
  <rect x="0" y="393" width="1200" height="4" fill="#E8601C" opacity="0.6"/>

  <!-- Vann -->
  <rect x="0" y="413" width="1200" height="187" fill="url(#water)"/>

  <!-- Vannrefleksjoner -->
  <rect x="50" y="425" width="80" height="3" rx="2" fill="rgba(245,240,232,0.08)"/>
  <rect x="60" y="433" width="55" height="2" rx="1" fill="rgba(245,240,232,0.05)"/>
  <rect x="550" y="430" width="120" height="3" rx="2" fill="rgba(232,96,28,0.12)"/>
  <rect x="580" y="440" width="70" height="2" rx="1" fill="rgba(232,96,28,0.08)"/>
  <rect x="870" y="428" width="90" height="3" rx="2" fill="rgba(245,240,232,0.07)"/>
  <rect x="900" y="438" width="50" height="2" rx="1" fill="rgba(245,240,232,0.05)"/>

  <!-- Båter -->
  <ellipse cx="310" cy="415" rx="55" ry="10" fill="#1B3048"/>
  <rect x="275" y="400" width="70" height="15" rx="3" fill="#1B3048"/>
  <rect x="318" y="385" width="4" height="25" fill="#243D5C"/>
  <polygon points="322,388 322,408 340,402" fill="#1A3050"/>

  <ellipse cx="870" cy="416" rx="45" ry="9" fill="#1B3048"/>
  <rect x="838" y="403" width="64" height="13" rx="3" fill="#1B3048"/>
  <rect x="876" y="388" width="3" height="22" fill="#243D5C"/>
</svg>
